<svg width="229" height="51" viewBox="0 0 229 51" fill="none" xmlns="http://www.w3.org/2000/svg">
    <rect x="186" y="11" width="5" height="1" fill="black"/>
    <rect x="186" y="17" width="5" height="1" fill="black"/>
    <rect x="185" y="12" width="2" height="5" fill="black"/>
    <rect x="190" y="12" width="2" height="5" fill="black"/>
    <rect x="201" y="11" width="6" height="1" fill="black"/>
    <rect x="203" y="12" width="2" height="6" fill="black"/>
    <rect x="208" y="11" width="2" height="3" fill="black"/>
    <rect x="212" y="11" width="2" height="3" fill="black"/>
    <rect x="210" y="15" width="2" height="3" fill="black"/>
    <rect x="209" y="14" width="4" height="1" fill="black"/>
    <rect x="21.5714" y="8" width="5.14286" height="1.28571" fill="black"/>
    <rect x="21.5714" y="13.1429" width="5.14286" height="1.28571" fill="black"/>
    <rect x="19" y="8" width="2.57143" height="9" fill="black"/>
    <rect x="25.4286" y="9.28571" width="2.57143" height="3.85714" fill="black"/>
    <rect x="9" y="8" width="2.57143" height="9" fill="black"/>
    <rect x="15.4286" y="8" width="2.57143" height="9" fill="black"/>
    <rect x="11.5714" y="11.8571" width="3.85714" height="1.28571" fill="black"/>
    <rect x="148" y="34.2857" width="2.57143" height="1.28571" fill="black"/>
    <rect x="148" y="33" width="9" height="1.28571" fill="black"/>
    <rect x="148" y="35.5714" width="7.71429" height="1.28571" fill="black"/>
    <rect x="149.286" y="40.7143" width="6.42857" height="1.28571" fill="black"/>
    <rect x="148" y="39.4286" width="2.57143" height="1.28571" fill="black"/>
    <rect x="154.429" y="36.8571" width="2.57143" height="3.85714" fill="black"/>
    <rect x="142.333" y="33" width="2.33333" height="7.71429" fill="black"/>
    <rect x="140" y="40.7143" width="7" height="1.28571" fill="black"/>
    <rect x="141.167" y="34.2857" width="1.16667" height="1.28571" fill="black"/>
    <rect x="205" y="35.5714" width="1.28571" height="3.85714" fill="black"/>
    <rect x="206.286" y="34.2857" width="1.28571" height="6.42857" fill="black"/>
    <rect x="207.571" y="39.4286" width="1.28571" height="2.57143" fill="black"/>
    <rect x="208.857" y="40.7143" width="2.57143" height="1.28571" fill="black"/>
    <rect x="212.714" y="35.5714" width="1.28571" height="3.85714" fill="black"/>
    <rect x="207.571" y="33" width="2.57143" height="1.28571" fill="black"/>
    <rect x="210.143" y="33" width="1.28571" height="2.57143" fill="black"/>
    <rect x="211.429" y="34.2857" width="1.28571" height="6.42857" fill="black"/>
    <rect x="195" y="35.5714" width="1.28571" height="3.85714" fill="black"/>
    <rect x="196.286" y="34.2857" width="1.28571" height="6.42857" fill="black"/>
    <rect x="197.571" y="39.4286" width="1.28571" height="2.57143" fill="black"/>
    <rect x="198.857" y="40.7143" width="2.57143" height="1.28571" fill="black"/>
    <rect x="202.714" y="35.5714" width="1.28571" height="3.85714" fill="black"/>
    <rect x="197.571" y="33" width="2.57143" height="1.28571" fill="black"/>
    <rect x="200.143" y="33" width="1.28571" height="2.57143" fill="black"/>
    <rect x="201.429" y="34.2857" width="1.28571" height="6.42857" fill="black"/>
    <rect x="185" y="35.5714" width="1.28571" height="3.85714" fill="black"/>
    <rect x="186.286" y="34.2857" width="1.28571" height="6.42857" fill="black"/>
    <rect x="187.571" y="39.4286" width="1.28571" height="2.57143" fill="black"/>
    <rect x="188.857" y="40.7143" width="2.57143" height="1.28571" fill="black"/>
    <rect x="192.714" y="35.5714" width="1.28571" height="3.85714" fill="black"/>
    <rect x="187.571" y="33" width="2.57143" height="1.28571" fill="black"/>
    <rect x="190.143" y="33" width="1.28571" height="2.57143" fill="black"/>
    <rect x="191.429" y="34.2857" width="1.28571" height="6.42857" fill="black"/>
    <rect x="175" y="35.5714" width="1.28571" height="3.85714" fill="black"/>
    <rect x="176.286" y="34.2857" width="1.28571" height="6.42857" fill="black"/>
    <rect x="177.571" y="39.4286" width="1.28571" height="2.57143" fill="black"/>
    <rect x="178.857" y="40.7143" width="2.57143" height="1.28571" fill="black"/>
    <rect x="182.714" y="35.5714" width="1.28571" height="3.85714" fill="black"/>
    <rect x="177.571" y="33" width="2.57143" height="1.28571" fill="black"/>
    <rect x="180.143" y="33" width="1.28571" height="2.57143" fill="black"/>
    <rect x="181.429" y="34.2857" width="1.28571" height="6.42857" fill="black"/>
    <rect x="182" y="13" width="1" height="1" fill="black"/>
    <rect x="182" y="15" width="1" height="1" fill="black"/>
    <rect x="159" y="39.6" width="1.4" height="1.4" fill="black"/>
    <rect x="160.4" y="38.2" width="1.4" height="1.4" fill="black"/>
    <rect x="164.6" y="34" width="1.4" height="1.4" fill="black"/>
    <rect x="163.2" y="35.4" width="1.4" height="1.4" fill="black"/>
    <rect x="161.8" y="36.8" width="1.4" height="1.4" fill="black"/>
    <rect x="9" y="21" width="204" height="1" fill="black"/>
    <rect x="9" y="29" width="204" height="1" fill="black"/>

    <style>
    .box {
        animation: flash 1.5s linear infinite;
        margin:20px;
    }
    @keyframes flash {
        0%,100% {
            opacity: 1;
    }
    50% {
            opacity: 0;
        }
    }
    </style>
    <g class="box">
        <rect x="8" y="25" width="1" height="1" fill="red"/>
        <rect x="9" y="24" width="1" height="3" fill="red"/>
        <rect x="10" y="23" width="1" height="5" fill="red"/>
        <rect x="11" y="23" width="6" height="5" fill="red"/>
    </g>

    <rect x="8" y="21" width="1" height="2" fill="black"/>
    <rect x="7" y="22" width="1" height="2" fill="black"/>
    <rect x="7" y="27" width="1" height="2" fill="black"/>
    <rect x="8" y="28" width="1" height="2" fill="black"/>
    <rect x="6" y="23" width="1" height="5" fill="black"/>
    <rect x="214" y="30" width="1" height="2" transform="rotate(-180 214 30)" fill="black"/>
    <rect x="215" y="29" width="1" height="2" transform="rotate(-180 215 29)" fill="black"/>
    <rect x="215" y="24" width="1" height="2" transform="rotate(-180 215 24)" fill="black"/>
    <rect x="214" y="23" width="1" height="2" transform="rotate(-180 214 23)" fill="black"/>
    <rect x="216" y="28" width="1" height="5" transform="rotate(-180 216 28)" fill="black"/>
    <rect x="8" width="1" height="2" fill="black"/>
    <rect x="7" y="1" width="1" height="2" fill="black"/>
    <rect x="6" y="2" width="1" height="2" fill="black"/>
    <rect x="2" y="6" width="1" height="2" fill="black"/>
    <rect x="1" y="7" width="1" height="2" fill="black"/>
    <rect x="4" y="44" width="1" height="2" fill="black"/>
    <rect x="1" y="41" width="1" height="2" fill="black"/>
    <rect x="8" y="48" width="1" height="2" fill="black"/>
    <rect x="9" y="49" width="1" height="2" fill="black"/>
    <rect x="2" y="42" width="1" height="2" fill="black"/>
    <rect x="3" y="43" width="1" height="2" fill="black"/>
    <rect x="7" y="47" width="1" height="2" fill="black"/>
    <rect x="5" y="45" width="1" height="2" fill="black"/>
    <rect x="6" y="46" width="1" height="2" fill="black"/>
    <rect x="3" y="5" width="1" height="2" fill="black"/>
    <rect x="4" y="4" width="1" height="2" fill="black"/>
    <rect x="5" y="3" width="1" height="2" fill="black"/>
    <rect y="8" width="1" height="34" fill="black"/>
    <rect x="221" y="51" width="1" height="2" transform="rotate(-180 221 51)" fill="black"/>
    <rect x="222" y="50" width="1" height="2" transform="rotate(-180 222 50)" fill="black"/>
    <rect x="223" y="49" width="1" height="2" transform="rotate(-180 223 49)" fill="black"/>
    <rect x="227" y="45" width="1" height="2" transform="rotate(-180 227 45)" fill="black"/>
    <rect x="228" y="44" width="1" height="2" transform="rotate(-180 228 44)" fill="black"/>
    <rect x="225" y="7" width="1" height="2" transform="rotate(-180 225 7)" fill="black"/>
    <rect x="228" y="10" width="1" height="2" transform="rotate(-180 228 10)" fill="black"/>
    <rect x="221" y="3" width="1" height="2" transform="rotate(-180 221 3)" fill="black"/>
    <rect x="220" y="2" width="1" height="2" transform="rotate(-180 220 2)" fill="black"/>
    <rect x="227" y="9" width="1" height="2" transform="rotate(-180 227 9)" fill="black"/>
    <rect x="226" y="8" width="1" height="2" transform="rotate(-180 226 8)" fill="black"/>
    <rect x="222" y="4" width="1" height="2" transform="rotate(-180 222 4)" fill="black"/>
    <rect x="224" y="6" width="1" height="2" transform="rotate(-180 224 6)" fill="black"/>
    <rect x="223" y="5" width="1" height="2" transform="rotate(-180 223 5)" fill="black"/>
    <rect x="226" y="46" width="1" height="2" transform="rotate(-180 226 46)" fill="black"/>
    <rect x="225" y="47" width="1" height="2" transform="rotate(-180 225 47)" fill="black"/>
    <rect x="224" y="48" width="1" height="2" transform="rotate(-180 224 48)" fill="black"/>
    <rect x="229" y="43" width="1" height="34" transform="rotate(-180 229 43)" fill="black"/>
    <rect x="9" width="210" height="1" fill="black"/>
    <rect x="10" y="50" width="210" height="1" fill="black"/>
    <rect x="169.333" y="33" width="2.33333" height="7.71429" fill="black"/>
    <rect x="167" y="40.7143" width="7" height="1.28571" fill="black"/>
    <rect x="168.167" y="34.2857" width="1.16667" height="1.28571" fill="black"/>
    <rect x="194" y="12" width="2" height="1" fill="black"/>
    <rect x="194" y="16" width="2" height="1" fill="black"/>
    <rect x="195" y="11" width="5" height="1" fill="black"/>
    <rect x="195" y="17" width="5" height="1" fill="black"/>
    <rect x="197" y="14" width="3" height="1" fill="black"/>
    <rect x="193" y="13" width="2" height="3" fill="black"/>
    <rect x="198" y="15" width="2" height="2" fill="black"/>
</svg>
